<svg width="800" height="300" viewBox="0 0 800 300" xmlns="http://www.w3.org/2000/svg">
  <defs>
    <filter id="glow" x="-20%" y="-20%" width="140%" height="140%">
      <feGaussianBlur stdDeviation="3" result="blur" />
      <feComposite in="SourceGraphic" in2="blur" operator="over" />
    </filter>
  </defs>

  <style>
    .node { fill: #2D3748; stroke: #4A5568; stroke-width: 2; }
    .icon { fill: #EDF2F7; stroke: #EDF2F7; stroke-width: 1.5; fill-rule: evenodd; }
    .pulse { fill: #00D2FF; filter: url(#glow); }
    
    @keyframes move {
      0% { offset-distance: 0%; opacity: 0; }
      10% { opacity: 1; }
      90% { opacity: 1; }
      100% { offset-distance: 100%; opacity: 0; }
    }
    
    @keyframes nodePulse {
      0%, 100% { transform: scale(1); }
      50% { transform: scale(1.1); stroke: #00D2FF; }
    }
    
    .n1 { animation: nodePulse 5s infinite 0s; transform-origin: 100px 150px; }
    .n2 { animation: nodePulse 5s infinite 1s; transform-origin: 250px 150px; }
    .n3 { animation: nodePulse 5s infinite 2s; transform-origin: 400px 150px; }
    .n4 { animation: nodePulse 5s infinite 3s; transform-origin: 550px 150px; }
    .n5 { animation: nodePulse 5s infinite 4s; transform-origin: 700px 150px; }
  </style>

  <!-- Connection Line -->
  <path d="M 100 150 L 700 150" stroke="#4A5568" stroke-width="4" stroke-dasharray="10 5" fill="none">
    <animate attributeName="stroke-dashoffset" from="0" to="15" dur="1s" repeatCount="indefinite" />
  </path>

  <!-- Node 1: DEV (Code Brackets) -->
  <g class="n1">
    <circle cx="100" cy="150" r="35" class="node" />
    <path d="M 85 150 L 95 140 M 85 150 L 95 160 M 115 150 L 105 140 M 115 150 L 105 160" stroke="#EDF2F7" stroke-width="3" fill="none" />
  </g>
  
  <!-- Node 2: GITHUB (Octocat-style silhouette) -->
  <g class="n2">
    <circle cx="250" cy="150" r="35" class="node" />
    <path d="M 250 130 C 235 130 230 140 230 150 C 230 165 240 170 250 170 C 260 170 270 165 270 150 C 270 140 265 130 250 130 M 240 135 L 235 125 M 260 135 L 265 125" class="icon" />
  </g>

  <!-- Node 3: JENKINS (Classic Butler bow tie style) -->
  <g class="n3">
    <circle cx="400" cy="150" r="40" class="node" />
    <path d="M 390 140 L 410 140 L 410 160 L 390 160 Z M 390 160 L 380 170 M 410 160 L 420 170" fill="#EDF2F7" />
    <rect x="392" y="145" width="16" height="5" fill="#2D3748" />
  </g>

  <!-- Node 4: DOCKER (Whale silhouette) -->
  <g class="n4">
    <circle cx="550" cy="150" r="35" class="node" />
    <path d="M 535 155 Q 535 140 565 140 L 565 150 Q 565 160 535 165 M 565 145 L 575 140" fill="#EDF2F7" stroke="#EDF2F7" stroke-width="2" />
    <rect x="540" y="145" width="6" height="6" fill="#2D3748" />
    <rect x="548" y="145" width="6" height="6" fill="#2D3748" />
  </g>

  <!-- Node 5: LIVE (Globe) -->
  <g class="n5">
    <circle cx="700" cy="150" r="35" class="node" />
    <circle cx="700" cy="150" r="20" stroke="#EDF2F7" stroke-width="2" fill="none" />
    <path d="M 680 150 L 720 150 M 700 130 L 700 170" stroke="#EDF2F7" stroke-width="1.5" />
  </g>

  <!-- Animated Data Packet -->
  <circle r="6" class="pulse">
    <animateMotion dur="5s" repeatCount="indefinite" path="M 100 150 L 250 150 L 400 150 L 550 150 L 700 150" />
  </circle>

</svg>
